<svg xmlns="http://www.w3.org/2000/svg" xmlns:xlink="http://www.w3.org/1999/xlink" id="gecko_guide" data-name="gecko guide" viewBox="0 0 45 45" class="mdl-js"><defs><clipPath id="clip-path"><path id="Path_1092" data-name="Path 1092" d="M22.5,0A22.5,22.5,0,1,0,45,22.5,22.534,22.534,0,0,0,22.5,0Z"></path></clipPath><linearGradient id="linear-gradient" x1="-0.652" y1="0.797" x2="0.79" y2="0.797" gradientUnits="objectBoundingBox"><stop offset="0" stop-color="#b5c440"></stop><stop offset="1" stop-color="#8fc540"></stop></linearGradient><clipPath id="clip-path-18"><path id="Path_1132" data-name="Path 1132" d="M22.5,0A22.5,22.5,0,1,0,45,22.5,22.534,22.534,0,0,0,22.5,0Zm0,42.1A19.6,19.6,0,1,1,42.1,22.5,19.632,19.632,0,0,1,22.5,42.1Z" transform="translate(5.1 8.2)"></path></clipPath><linearGradient id="linear-gradient-2" x1="-0.573" y1="0.718" x2="0.871" y2="0.718" xlink:href="#linear-gradient"></linearGradient></defs><g id="gecko_guide_resized" data-name="gecko guide resized"><g id="Group_1969" data-name="Group 1969"><path id="Path_1093" data-name="Path 1093" d="M22.5,0A22.5,22.5,0,1,0,45,22.5,22.534,22.534,0,0,0,22.5,0Z" fill="#f9eeb9"></path></g><g id="Group_1970" data-name="Group 1970"><path id="Path_1094" data-name="Path 1094" d="M29.8,27.8s3.5-.5,7.3-4.6L39.9,25a15.562,15.562,0,0,1-9.2,6.9" fill="#8cc341"></path><path id="Path_1095" data-name="Path 1095" d="M41.6,22.9a2.545,2.545,0,0,1-1.4,2.4A3,3,0,0,1,36.4,23c-.2-.7,0-2.7,1.4-1.5a2.109,2.109,0,0,1,3.8,1.4Z" fill="#8cc341"></path></g><g id="Group_1971" data-name="Group 1971"><path id="Path_1096" data-name="Path 1096" d="M16.6,30.8c-3.6,2.5-4.2,9.4.6,10.7-3.8,4,3.3,2.9,2.1-2-.2-.9-1.2-1.2-1.5-1.8a28.052,28.052,0,0,1,0-2.9,13.633,13.633,0,0,0-.8-4.2" fill="#8dc540"></path></g><g id="Group_1988" data-name="Group 1988"><g id="Group_1972" data-name="Group 1972" clip-path="url(#clip-path)"><path id="Path_1097" data-name="Path 1097" d="M8.6,16.1c.3,1.7-1.3,3.8-.3,5.4,1.3,2.2,5.3-.4,6.4-1.6,1-1.2,2.3-4.6.4-5.7-1.6-.9-4.1-.1-5.4.9a4.7,4.7,0,0,0-.9.6" fill="#fff"></path></g><g id="Group_1973" data-name="Group 1973" clip-path="url(#clip-path)"><path id="Path_1099" data-name="Path 1099" d="M30.1,11c.5,1.7,2.8,2.8,2.7,4.6-.2,2.5-5.1,2.5-6.7,1.9-1.5-.6-3.9-3.5-2.6-5.3,1-1.5,3.6-1.9,5.2-1.7.4.1.7,0,1.1.1" fill="#fff"></path></g><g id="Group_1974" data-name="Group 1974" clip-path="url(#clip-path)"><path id="Path_1101" data-name="Path 1101" d="M43.4,49.5c.1.5-6.4,2.5-14.5,4.4-8.1,2-14.8,3.1-15,2.6-.1-.5,6.4-2.5,14.5-4.4C36.6,50.2,43.3,49,43.4,49.5Z" fill="#e5e6e6"></path></g><g id="Group_1975" data-name="Group 1975" clip-path="url(#clip-path)"><path id="Path_1103" data-name="Path 1103" d="M27.6,45.9a9.954,9.954,0,0,0,3.8-.8,3.552,3.552,0,0,0,.9-.4.758.758,0,0,1,.4-.2l.2-.1.2-.1a3.447,3.447,0,0,0,1.2-1.2c.7-1,1.1-2.5,2-3.8a1.756,1.756,0,0,1,.4-.5l.2-.2c.1-.1.2-.2.2-.3a3.915,3.915,0,0,1,1-.8,6.248,6.248,0,0,1,2.2-1,6.522,6.522,0,0,1,2.4-.2,5.277,5.277,0,0,1,2.2.8,5.175,5.175,0,0,1,1.7,1.6,3.358,3.358,0,0,1,.4,2.4A3.807,3.807,0,0,1,45.6,43a5.387,5.387,0,0,1-2.1.8,2.462,2.462,0,0,1-2-1,5.092,5.092,0,0,1-.6-2.1,4.793,4.793,0,0,0,.7,2,2.055,2.055,0,0,0,1.8.8A3.308,3.308,0,0,0,46.3,41a2.319,2.319,0,0,0-.4-1.8A4.428,4.428,0,0,0,44.4,38a4.58,4.58,0,0,0-3.8-.2,5.071,5.071,0,0,0-1.6.9,8.064,8.064,0,0,0-1.2,1.4c-.3.6-.5,1.2-.8,1.9a12.782,12.782,0,0,1-.9,2.2,10.04,10.04,0,0,1-1.6,2l-.3.2-.2.1a1.756,1.756,0,0,0-.5.4,10.907,10.907,0,0,1-1.1.6,14.463,14.463,0,0,1-4.6,1.4Z" fill="#8dc540"></path></g><g id="Group_1976" data-name="Group 1976" clip-path="url(#clip-path)"><path id="Path_1105" data-name="Path 1105" d="M22,46c.3,2,.7,3.9.9,5.8-6,1.8,2.7,3.3,2.6.8,2.6.7,3.3-2.4.5-1.7a14.5,14.5,0,0,0-1.1-5c-.8-1.2-2-1.1-3.4-2.2A6.558,6.558,0,0,0,22,46" fill="#8dc540"></path></g><g id="Group_1977" data-name="Group 1977" clip-path="url(#clip-path)"><path id="Path_1107" data-name="Path 1107" d="M31.6,43.7c.6,1.9,1.2,3.8,1.8,5.6,6.2-1.2-.9,4.2-1.9,1.9-2,1.7-4.1-.6-1.2-1.3A14.259,14.259,0,0,1,29,45c.2-1.5,1.8-2,2.5-3.6a3.655,3.655,0,0,1,.1,2.3" fill="#8dc540"></path></g><g id="Group_1978" data-name="Group 1978" clip-path="url(#clip-path)"><path id="Path_1109" data-name="Path 1109" d="M30.8,31.2c2.2,9.3,1,17.5-2.7,18.4s-8.5-5.9-10.7-15.1-1-17.5,2.7-18.4C23.8,15.1,28.6,21.9,30.8,31.2Z" fill="#8dc540"></path></g><g id="Group_1979" data-name="Group 1979" clip-path="url(#clip-path)"><path id="Path_1111" data-name="Path 1111" d="M29.8,32.9c1.7,6.9.6,13.1-2.4,13.8S20.7,42.4,19,35.5s-.6-13.1,2.4-13.8S28.1,26,29.8,32.9Z" fill="#fff"></path></g><g id="Group_1980" data-name="Group 1980" clip-path="url(#clip-path)"><path id="Path_1113" data-name="Path 1113" d="M34.4,17.2c1,4.4-3.4,12.2-10.7,13.9S8.8,27.9,7.8,23.5s5.8,3.3,13.1,1.5C28.3,23.3,33.3,12.8,34.4,17.2Z" fill="#8dc540"></path></g><g id="Group_1981" data-name="Group 1981" clip-path="url(#clip-path)"><path id="Path_1115" data-name="Path 1115" d="M32.4,18.6c.9,3.6-2.8,10.1-8.9,11.5-6.1,1.5-12.3-2.7-13.1-6.3-.9-3.6,4.8,2.7,10.9,1.3S31.5,15,32.4,18.6Z" fill="#fff"></path></g><g id="Group_1982" data-name="Group 1982" clip-path="url(#clip-path)"><path id="Path_1117" data-name="Path 1117" d="M10.5,13.1c-1.1,1.4-2.4,2-2,3.4,1.7-1.3,5.7-3.4,6.4.2.6,3.1-1,4.3-4.9,5.5,3.1,9.1,22.8,5.9,21.5-5.4-8.6,3.5-7.3-5.8-1.5-6.1-.2-2-4.3-2.7-5.9-2.4-1.9.5-2.8,2.1-4.9,2.6-1.8.4-2.9-.6-4.7-.3-.9.3-3.4.9-4,2.5" fill="#8cc341"></path></g><g id="Group_1983" data-name="Group 1983" clip-path="url(#clip-path)"><path id="Path_1119" data-name="Path 1119" d="M10.4,22.3c-.6-.9-1.8-1.6-2.5-.3-1.4,2.7,4.3,4.2,5.7,3.7" fill="#8dc540"></path></g><g id="Group_1984" data-name="Group 1984" clip-path="url(#clip-path)"><path id="Path_1121" data-name="Path 1121" d="M31.4,17.3c.2-1.1.9-2.3,2.1-1.4,2.4,1.7-2,5.7-3.4,5.9" fill="#8dc540"></path></g><g id="Group_1985" data-name="Group 1985" clip-path="url(#clip-path)"><path id="Path_1123" data-name="Path 1123" d="M18.4,24a.982.982,0,1,1-1.2-.7A.977.977,0,0,1,18.4,24Z" fill="#fff"></path></g><g id="Group_1986" data-name="Group 1986" clip-path="url(#clip-path)"><path id="Path_1125" data-name="Path 1125" d="M27.2,21.9a.982.982,0,1,1-1.2-.7A1.086,1.086,0,0,1,27.2,21.9Z" fill="#fff"></path></g><g id="Group_1987" data-name="Group 1987" clip-path="url(#clip-path)"><path id="Path_1127" data-name="Path 1127" d="M23.7,28.4a23.676,23.676,0,0,0,3.6-1.7A7.006,7.006,0,0,0,30,24a5.076,5.076,0,0,1-.9,1.8,6.1,6.1,0,0,1-1.5,1.3A10.579,10.579,0,0,1,23.7,28.4Z" fill="#f1f1f1"></path></g></g><path id="Path_1129" data-name="Path 1129" d="M27.1,15.3a1.421,1.421,0,0,0,.2.6,1.8,1.8,0,0,1,1.5-1.5,1.983,1.983,0,0,1,1.9.9v-.7a1.81,1.81,0,0,0-2.1-1.5A2.165,2.165,0,0,0,27.1,15.3Z" fill="#2d2c2a"></path><path id="Path_1130" data-name="Path 1130" d="M9.6,19.2a1.421,1.421,0,0,0,.2.6,1.8,1.8,0,0,1,1.5-1.5,1.983,1.983,0,0,1,1.9.9v-.7A1.81,1.81,0,0,0,11.1,17,1.909,1.909,0,0,0,9.6,19.2Z" fill="#2d2c2a"></path><g id="Group_1990" data-name="Group 1990"><path id="Path_1131" data-name="Path 1131" d="M22.5,0A22.5,22.5,0,1,0,45,22.5,22.534,22.534,0,0,0,22.5,0Zm0,42.1A19.6,19.6,0,1,1,42.1,22.5,19.632,19.632,0,0,1,22.5,42.1Z" fill="url(#linear-gradient)"></path><g id="Group_1989" data-name="Group 1989" transform="translate(-5.1 -8.2)" clip-path="url(#clip-path-18)"><rect id="Rectangle_2228" data-name="Rectangle 2228" width="55.1" height="58.1" fill="url(#linear-gradient-2)"></rect></g></g></g></svg>